<svg width="348.22" height="371.37" version="1.1" viewBox="0 0 92.134 98.258" xmlns="http://www.w3.org/2000/svg" xmlns:xlink="http://www.w3.org/1999/xlink">
 <defs>
  <linearGradient id="a" x1="67.733" x2="67.733" y1="268.62" y2="189.91" gradientTransform="matrix(1.2484 0 0 1.2484 -16.823 -56.942)" gradientUnits="userSpaceOnUse">
   <stop stop-color="#001d93" offset="0"/>
   <stop stop-color="#5eaeff" offset="1"/>
  </linearGradient>
 </defs>
 <g transform="translate(-21.666 -180.14)">
  <path d="m23.339 180.14a1.6736 1.6736 0 0 0-1.665 1.8386l9.3625 94.91a1.6736 1.6736 0 0 0 1.6657 1.5096h70.062a1.6736 1.6736 0 0 0 1.6657-1.5096l9.3625-94.91a1.6736 1.6736 0 0 0-1.665-1.8386zm6.2647 3.3481h9.8638l-0.79929 0.7993 7.2407 7.2401 7.2865-7.2865-0.75285-0.75284h9.7715l-0.75285 0.75284 7.2865 7.2865 7.2401-7.2401-0.79929-0.7993h9.865l-0.79929 0.7993 7.2394 7.2394 7.2317-7.2304-0.80832-0.80832h9.8825l-0.80832 0.80832 2.9217 2.9217-0.74188 7.5233-6.3131-6.313-7.2311 7.231 7.2311 7.2311 6.1118-6.1112-0.90444 9.1703-1.0741 1.0741 0.88122 0.88122-0.74252 7.5233-4.2719-4.2713-7.2401 7.2401 7.2401 7.2401 3.6223-3.6223-1.3928 14.118-2.2295-2.2295-7.2865 7.2865 7.2575 7.2575 1.158-1.158-0.95025 9.6309-0.20772-0.20771-7.2401 7.2401 6.1473 6.1473-0.48835 4.9506h-2.8269l-6.9653-6.9646-6.9646 6.9646h-8.7987l-6.9911-6.9911-6.9911 6.9911h-8.7638l-6.9911-6.9911-6.9911 6.9911h-4.7454l-0.3161-3.2043 7.92-7.9194-7.2317-7.2317-1.9869 1.9876-1.3399-13.58 3.3268 3.3268 7.2401-7.2401-7.2401-7.2401-4.03 4.03-0.74252-7.5233 0.63995-0.63995-0.77994-0.7793-0.90445-9.1703 5.817 5.817 7.2311-7.2311-7.2865-7.2865-6.0253 6.0254-0.74252-7.5233 2.6353-2.6353-3.212-3.212-1.4657-14.856 4.6777-4.6777zm27.725 4.8854-7.2872 7.2872 7.2872 7.2859 7.2859-7.2859zm-22.793 0.0464-7.2401 7.2401 7.2401 7.2401 7.2407-7.2394zm45.586 0-7.2401 7.2407 7.2394 7.2394 7.2407-7.2401zm-34.212 11.373-7.2401 7.2401 7.2865 7.2865 7.2401-7.2401zm22.839 0-7.2865 7.2865 7.2401 7.2401 7.2865-7.2865zm22.747 0-7.2407 7.2401 7.2311 7.231 7.2407-7.2401zm-11.373 11.373-7.2865 7.2865 7.2311 7.2311 7.2865-7.2866zm-22.792 0.0464-7.2407 7.2394 7.2407 7.2407 7.2394-7.2407zm34.156 11.318-7.2859 7.2859 7.2394 7.2407 7.2872-7.2872zm-45.529 0.0548-7.2317 7.231 7.2407 7.2407 7.2311-7.2317zm22.746 0-7.2401 7.2401 7.2317 7.2317 7.2394-7.2407zm11.364 11.364-7.2401 7.2401 7.2401 7.2401 7.2401-7.2401zm-22.737 9e-3 -7.2317 7.2311 7.2317 7.2317 7.2311-7.2317zm34.11 11.364-7.2394 7.2407 7.2575 7.2575 7.2394-7.2407zm-45.474 6.5e-4 -7.2401 7.2401 7.2311 7.231 7.2401-7.2401zm22.728 0-7.2311 7.231 7.2401 7.2401 7.2311-7.231zm-11.364 11.364-7.2407 7.2407 7.2407 7.2394 7.2394-7.2394zm22.737 9e-3 -7.2311 7.2317 7.2575 7.2575 7.2311-7.2317z" fill="url(#a)" style="paint-order:normal"/>
 </g>
</svg>
