<svg width="200" height="200" version="1.1" viewBox="0 0 200 200" xmlns="http://www.w3.org/2000/svg">
 <g transform="translate(-58.294 -.002867)" fill="#ff6c37">
  <path d="m257.48 112.74a100 100 0 1 0-111.91 86.45 100 100 0 0 0 111.91-86.45z"/>
 </g>
 <path d="m136.07 64.267-42.16 42.16-11.95-11.94c41.51-41.49 45.63-37.84 54.11-30.22z" fill="#fff"/>
 <path d="m93.906 107.44a1 1 0 0 1-0.71-0.3l-12-12a1 1 0 0 1 0-1.41c42.2-42.2 46.64-38.21 55.49-30.26a1 1 0 0 1 0.33 0.72 1 1 0 0 1-0.29 0.74l-42.12 42.21a1 1 0 0 1-0.7 0.3zm-10.53-13 10.53 10.56 40.71-40.71c-7.39-6.53-12.41-8.56-51.24 30.2z" fill="#ff6c37"/>
 <path d="m105.99 118.52-11.52-11.52 42.17-42.17c11.35 11.36-5.48 29.88-30.65 53.69z" fill="#fff"/>
 <path d="m105.99 119.52h-0.05a1.07 1.07 0 0 1-0.67-0.31l-11.51-11.5a1.05 1.05 0 0 1-0.29-0.71 1 1 0 0 1 0.29-0.71l42.17-42.16a1 1 0 0 1 1.41 0 12.57 12.57 0 0 1 3.91 9.33c-0.16 11.09-12.79 25.18-34.57 45.78a1 1 0 0 1-0.69 0.28zm-10.1-12.52c6.45 6.46 9.06 9.06 10.12 10.12 16.84-16 33.08-32.39 33.24-43.68a10.34 10.34 0 0 0-2.64-7.17z" fill="#ff6c37"/>
 <path d="m82.246 94.777 8.51 8.5a0.41 0.41 0 0 1-0.21 0.69l-17.55 3.78a1.65 1.65 0 0 1-1.52-2.78l10.23-10.19a0.41 0.41 0 0 1 0.54 0z" fill="#fff"/>
 <path d="m72.636 108.79a2.65 2.65 0 0 1-1.86-4.53l10.18-10.19a1.42 1.42 0 0 1 2 0l8.5 8.51a1.4 1.4 0 0 1-0.7 2.37l-17.55 3.78a2.76 2.76 0 0 1-0.57 0.06zm9.32-12.89-9.77 9.77a0.63 0.63 0 0 0-0.11 0.78 0.61 0.61 0 0 0 0.71 0.32l16.49-3.55z" fill="#ff6c37"/>
 <path d="m158.43 40.857a16.18 16.18 0 1 0-2.85 25.52l-11.34-11.33z" fill="#fff"/>
 <path d="m147.21 69.717a17.19 17.19 0 1 1 11.91-29.58 1 1 0 0 1 0.31 0.71 1 1 0 0 1-0.29 0.72l-13.43 13.48 10.63 10.62a1 1 0 0 1 0.28 0.83 1 1 0 0 1-0.48 0.74 17.21 17.21 0 0 1-8.93 2.48zm0-32.34a15.16 15.16 0 1 0 6.71 28.76l-10.38-10.39a1 1 0 0 1-0.3-0.7 1 1 0 0 1 0.3-0.71l13.44-13.44a15.19 15.19 0 0 0-9.76-3.52z" fill="#ff6c37"/>
 <path d="m158.71 41.077-0.25-0.22-14.22 14.19 11.34 11.33a16 16 0 0 0 3.13-2.38 16.2 16.2 0 0 0 0-22.92z" fill="#fff"/>
 <path d="m155.58 67.377a1 1 0 0 1-0.71-0.29l-11.33-11.34a1 1 0 0 1-0.3-0.7 1 1 0 0 1 0.3-0.71l14.17-14.19a1 1 0 0 1 1.4 0l0.26 0.23a17.15 17.15 0 0 1-3.29 26.87 1 1 0 0 1-0.5 0.13zm-9.87-12.33 10 10.06a15.79 15.79 0 0 0 2.25-1.84 15.19 15.19 0 0 0 0.46-21z" fill="#ff6c37"/>
 <path d="m137.81 65.997a6.17 6.17 0 0 0-8.71 0l-37.71 37.72 6.32 6.28 39.86-35a6.16 6.16 0 0 0 0.24-9z" fill="#fff"/>
 <path d="m97.706 111a1 1 0 0 1-0.71-0.29l-6.29-6.28a1 1 0 0 1 0-1.42l37.68-37.71a7.18 7.18 0 0 1 10.13 0 7.15 7.15 0 0 1-0.34 10.43l-39.86 35a1 1 0 0 1-0.61 0.27zm-4.86-7.27 4.9 4.9 39.16-34.39a5.16 5.16 0 1 0-7.05-7.52z" fill="#ff6c37"/>
 <path d="m62.466 146.58a0.91 0.91 0 0 0-0.47 1l1.69 7.22a2 2 0 0 1-3.44 1.91l-10.93-10.93 35.89-35.88 12.35 0.19 8.43 8.42c-2.09 1.75-14.18 13.36-43.52 28.07z" fill="#fff"/>
 <path d="m61.706 158.33a3 3 0 0 1-2.14-0.9l-10.96-10.94a1 1 0 0 1-0.29-0.7 1 1 0 0 1 0.29-0.71l35.89-35.89a1 1 0 0 1 0.72-0.29l12.36 0.19a1 1 0 0 1 0.69 0.29l8.42 8.43a1 1 0 0 1 0.3 0.75 1 1 0 0 1-0.36 0.72l-0.71 0.62c-10.58 9.29-25 18.55-42.93 27.53l1.68 7.15a3 3 0 0 1-1.49 3.36 3.07 3.07 0 0 1-1.47 0.39zm-11-12.54 10.25 10.21a1.0121 1.0121 0 0 0 1.76-1l-1.69-7.22a1.9 1.9 0 0 1 1-2.13c17.74-8.9 32-18.06 42.5-27.23l-7.38-7.38-11.53-0.18z" fill="#ff6c37"/>
 <path d="m40.706 154.38 8.59-8.59 12.77 12.77-20.4-1.4a1.63 1.63 0 0 1-0.96-2.78z" fill="#fff"/>
 <path d="m62.086 159.56h-0.06l-20.41-1.4a2.64 2.64 0 0 1-1.6-4.49l8.59-8.59a1 1 0 0 1 1.42 0l12.77 12.77a1 1 0 0 1 0.21 1.13 1 1 0 0 1-0.92 0.58zm-12.77-12.36-7.88 7.88a0.62 0.62 0 0 0-0.16 0.66 0.63 0.63 0 0 0 0.53 0.43l17.69 1.21z" fill="#ff6c37"/>
 <path d="m81.566 114.53a1 1 0 0 1-0.71-1.7l9.72-9.72a1 1 0 0 1 1.42 0l6.26 6.27a1 1 0 0 1 0.26 1 1 1 0 0 1-0.75 0.69l-16 3.45a0.75 0.75 0 0 1-0.2 0.01zm9.72-9.3-6.58 6.61 10.87-2.35z" fill="#ff6c37"/>
 <path d="m97.556 110.09-11 2.36a1.51 1.51 0 0 1-1.39-2.55l6.08-6.08z" fill="#fff"/>
 <path d="m86.266 113.48a2.51 2.51 0 0 1-1.77-4.29l6.08-6.08a1 1 0 0 1 1.42 0l6.26 6.27a1 1 0 0 1 0.26 1 1 1 0 0 1-0.75 0.69l-11 2.37a2.47 2.47 0 0 1-0.5 0.04zm5-8.25-5.38 5.37a0.49 0.49 0 0 0-0.08 0.61 0.46 0.46 0 0 0 0.56 0.26l9.16-2z" fill="#ff6c37"/>
 <path d="m158.78 50.687a1.16 1.16 0 1 0-2.07 1 3.49 3.49 0 0 1-0.43 3.76 1.16 1.16 0 0 0 0.15 1.63 1.17 1.17 0 0 0 1.63-0.16 5.79 5.79 0 0 0 0.72-6.23z" fill="#ff6c37"/>
</svg>
